<svg width="440" height="240" version="1.1" xmlns="http://www.w3.org/2000/svg" xmlns:xlink="http://www.w3.org/1999/xlink"><g transform="translate(30,10)"><g id="g1" class="type-group"><g transform="translate(0,0)"><rect class="background" style="pointer-events: none; fill: none;" width="400" height="200"></rect><g id="g2" class="type-rect" style=""><rect x="0" y="144" width="19" height="56" style="fill: steelblue;"></rect><rect x="20" y="89.99999999999999" width="19" height="110.00000000000001" style="fill: steelblue;"></rect><rect x="40" y="114" width="19" height="86" style="fill: steelblue;"></rect><rect x="60" y="18" width="19" height="182" style="fill: steelblue;"></rect><rect x="80" y="38" width="19" height="162" style="fill: steelblue;"></rect><rect x="100" y="94" width="19" height="106" style="fill: steelblue;"></rect><rect x="120" y="162" width="19" height="38" style="fill: steelblue;"></rect><rect x="140" y="26" width="19" height="174" style="fill: steelblue;"></rect><rect x="160" y="96" width="19" height="104" style="fill: steelblue;"></rect><rect x="180" y="104" width="19" height="96" style="fill: steelblue;"></rect><rect x="200" y="152" width="19" height="48" style="fill: steelblue;"></rect><rect x="220" y="102" width="19" height="98" style="fill: steelblue;"></rect><rect x="240" y="26" width="19" height="174" style="fill: steelblue;"></rect><rect x="260" y="68" width="19" height="132" style="fill: steelblue;"></rect><rect x="280" y="166" width="19" height="34" style="fill: steelblue;"></rect><rect x="300" y="146" width="19" height="54" style="fill: steelblue;"></rect><rect x="320" y="64" width="19" height="136" style="fill: steelblue;"></rect><rect x="340" y="168" width="19" height="32" style="fill: steelblue;"></rect><rect x="360" y="102" width="19" height="98" style="fill: steelblue;"></rect><rect x="380" y="170" width="19" height="30" style="fill: steelblue;"></rect></g><g id="g3" class="type-group"><g transform="translate(0,200)"><rect class="background" style="pointer-events: none; fill: none;" width="0" height="0"></rect><g id="g4" class="type-rule" style="pointer-events: none;"></g><g id="g5" class="type-rule" style="pointer-events: none;"><line x1="10.5" y1="0" x2="10.5" y2="6" style="fill: none; stroke: #000; stroke-width: 1; opacity: 1;"></line><line x1="30.5" y1="0" x2="30.5" y2="6" style="fill: none; stroke: #000; stroke-width: 1; opacity: 1;"></line><line x1="50.5" y1="0" x2="50.5" y2="6" style="fill: none; stroke: #000; stroke-width: 1; opacity: 1;"></line><line x1="70.5" y1="0" x2="70.5" y2="6" style="fill: none; stroke: #000; stroke-width: 1; opacity: 1;"></line><line x1="90.5" y1="0" x2="90.5" y2="6" style="fill: none; stroke: #000; stroke-width: 1; opacity: 1;"></line><line x1="110.5" y1="0" x2="110.5" y2="6" style="fill: none; stroke: #000; stroke-width: 1; opacity: 1;"></line><line x1="130.5" y1="0" x2="130.5" y2="6" style="fill: none; stroke: #000; stroke-width: 1; opacity: 1;"></line><line x1="150.5" y1="0" x2="150.5" y2="6" style="fill: none; stroke: #000; stroke-width: 1; opacity: 1;"></line><line x1="170.5" y1="0" x2="170.5" y2="6" style="fill: none; stroke: #000; stroke-width: 1; opacity: 1;"></line><line x1="190.5" y1="0" x2="190.5" y2="6" style="fill: none; stroke: #000; stroke-width: 1; opacity: 1;"></line><line x1="210.5" y1="0" x2="210.5" y2="6" style="fill: none; stroke: #000; stroke-width: 1; opacity: 1;"></line><line x1="230.5" y1="0" x2="230.5" y2="6" style="fill: none; stroke: #000; stroke-width: 1; opacity: 1;"></line><line x1="250.5" y1="0" x2="250.5" y2="6" style="fill: none; stroke: #000; stroke-width: 1; opacity: 1;"></line><line x1="270.5" y1="0" x2="270.5" y2="6" style="fill: none; stroke: #000; stroke-width: 1; opacity: 1;"></line><line x1="290.5" y1="0" x2="290.5" y2="6" style="fill: none; stroke: #000; stroke-width: 1; opacity: 1;"></line><line x1="310.5" y1="0" x2="310.5" y2="6" style="fill: none; stroke: #000; stroke-width: 1; opacity: 1;"></line><line x1="330.5" y1="0" x2="330.5" y2="6" style="fill: none; stroke: #000; stroke-width: 1; opacity: 1;"></line><line x1="350.5" y1="0" x2="350.5" y2="6" style="fill: none; stroke: #000; stroke-width: 1; opacity: 1;"></line><line x1="370.5" y1="0" x2="370.5" y2="6" style="fill: none; stroke: #000; stroke-width: 1; opacity: 1;"></line><line x1="390.5" y1="0" x2="390.5" y2="6" style="fill: none; stroke: #000; stroke-width: 1; opacity: 1;"></line></g><g id="g6" class="type-rule" style="pointer-events: none;"></g><g id="g7" class="type-text" style=""><text x="10.5" y="9" text-anchor="middle" dy=".9em" style="fill: #000; opacity: 1;">1</text><text x="30.5" y="9" text-anchor="middle" dy=".9em" style="fill: #000; opacity: 1;">2</text><text x="50.5" y="9" text-anchor="middle" dy=".9em" style="fill: #000; opacity: 1;">3</text><text x="70.5" y="9" text-anchor="middle" dy=".9em" style="fill: #000; opacity: 1;">4</text><text x="90.5" y="9" text-anchor="middle" dy=".9em" style="fill: #000; opacity: 1;">5</text><text x="110.5" y="9" text-anchor="middle" dy=".9em" style="fill: #000; opacity: 1;">6</text><text x="130.5" y="9" text-anchor="middle" dy=".9em" style="fill: #000; opacity: 1;">7</text><text x="150.5" y="9" text-anchor="middle" dy=".9em" style="fill: #000; opacity: 1;">8</text><text x="170.5" y="9" text-anchor="middle" dy=".9em" style="fill: #000; opacity: 1;">9</text><text x="190.5" y="9" text-anchor="middle" dy=".9em" style="fill: #000; opacity: 1;">10</text><text x="210.5" y="9" text-anchor="middle" dy=".9em" style="fill: #000; opacity: 1;">11</text><text x="230.5" y="9" text-anchor="middle" dy=".9em" style="fill: #000; opacity: 1;">12</text><text x="250.5" y="9" text-anchor="middle" dy=".9em" style="fill: #000; opacity: 1;">13</text><text x="270.5" y="9" text-anchor="middle" dy=".9em" style="fill: #000; opacity: 1;">14</text><text x="290.5" y="9" text-anchor="middle" dy=".9em" style="fill: #000; opacity: 1;">15</text><text x="310.5" y="9" text-anchor="middle" dy=".9em" style="fill: #000; opacity: 1;">16</text><text x="330.5" y="9" text-anchor="middle" dy=".9em" style="fill: #000; opacity: 1;">17</text><text x="350.5" y="9" text-anchor="middle" dy=".9em" style="fill: #000; opacity: 1;">18</text><text x="370.5" y="9" text-anchor="middle" dy=".9em" style="fill: #000; opacity: 1;">19</text><text x="390.5" y="9" text-anchor="middle" dy=".9em" style="fill: #000; opacity: 1;">20</text></g><g id="g8" class="type-path" style="pointer-events: none;"><path transform="translate(0.5,0.5)" d="M0,6V0H400V6" style="fill: none; stroke: #000; stroke-width: 1;"></path></g><g id="g9" class="type-text" style=""></g></g></g><g id="g10" class="type-group"><g transform="translate(0,0)"><rect class="background" style="pointer-events: none; fill: none;" width="0" height="0"></rect><g id="g11" class="type-rule" style="pointer-events: none;"></g><g id="g12" class="type-rule" style="pointer-events: none;"><line x1="-6" y1="200.5" x2="0" y2="200.5" style="fill: none; stroke: #000; stroke-width: 1; opacity: 1;"></line><line x1="-6" y1="180.5" x2="0" y2="180.5" style="fill: none; stroke: #000; stroke-width: 1; opacity: 1;"></line><line x1="-6" y1="160.5" x2="0" y2="160.5" style="fill: none; stroke: #000; stroke-width: 1; opacity: 1;"></line><line x1="-6" y1="140.5" x2="0" y2="140.5" style="fill: none; stroke: #000; stroke-width: 1; opacity: 1;"></line><line x1="-6" y1="120.5" x2="0" y2="120.5" style="fill: none; stroke: #000; stroke-width: 1; opacity: 1;"></line><line x1="-6" y1="100.5" x2="0" y2="100.5" style="fill: none; stroke: #000; stroke-width: 1; opacity: 1;"></line><line x1="-6" y1="80.5" x2="0" y2="80.5" style="fill: none; stroke: #000; stroke-width: 1; opacity: 1;"></line><line x1="-6" y1="60.5" x2="0" y2="60.5" style="fill: none; stroke: #000; stroke-width: 1; opacity: 1;"></line><line x1="-6" y1="40.5" x2="0" y2="40.5" style="fill: none; stroke: #000; stroke-width: 1; opacity: 1;"></line><line x1="-6" y1="20.5" x2="0" y2="20.5" style="fill: none; stroke: #000; stroke-width: 1; opacity: 1;"></line><line x1="-6" y1="0.5" x2="0" y2="0.5" style="fill: none; stroke: #000; stroke-width: 1; opacity: 1;"></line></g><g id="g13" class="type-rule" style="pointer-events: none;"></g><g id="g14" class="type-text" style=""><text x="-9" y="200.5" text-anchor="end" dy=".35em" style="fill: #000; opacity: 1;">0</text><text x="-9" y="180.5" text-anchor="end" dy=".35em" style="fill: #000; opacity: 1;">10</text><text x="-9" y="160.5" text-anchor="end" dy=".35em" style="fill: #000; opacity: 1;">20</text><text x="-9" y="140.5" text-anchor="end" dy=".35em" style="fill: #000; opacity: 1;">30</text><text x="-9" y="120.5" text-anchor="end" dy=".35em" style="fill: #000; opacity: 1;">40</text><text x="-9" y="100.5" text-anchor="end" dy=".35em" style="fill: #000; opacity: 1;">50</text><text x="-9" y="80.5" text-anchor="end" dy=".35em" style="fill: #000; opacity: 1;">60</text><text x="-9" y="60.5" text-anchor="end" dy=".35em" style="fill: #000; opacity: 1;">70</text><text x="-9" y="40.5" text-anchor="end" dy=".35em" style="fill: #000; opacity: 1;">80</text><text x="-9" y="20.5" text-anchor="end" dy=".35em" style="fill: #000; opacity: 1;">90</text><text x="-9" y="0.5" text-anchor="end" dy=".35em" style="fill: #000; opacity: 1;">100</text></g><g id="g15" class="type-path" style="pointer-events: none;"><path transform="translate(0.5,0.5)" d="M-6,0H0V200H-6" style="fill: none; stroke: #000; stroke-width: 1;"></path></g><g id="g16" class="type-text" style=""></g></g></g></g></g></g></svg>